<?xml version="1.0" standalone="no"?>
<!DOCTYPE svg PUBLIC "-//W3C//DTD SVG 20010904//EN"
 "http://www.w3.org/TR/2001/REC-SVG-20010904/DTD/svg10.dtd">
<svg version="1.0" xmlns="http://www.w3.org/2000/svg"
 width="415.000000pt" height="399.000000pt" viewBox="0 0 415.000000 399.000000"
 preserveAspectRatio="xMidYMid meet">
<metadata>
Created by potrace 1.14, written by Peter Selinger 2001-2017
</metadata>
<g transform="translate(0.000000,399.000000) scale(0.100000,-0.100000)"
fill="#000000" stroke="none">
<path d="M1368 3851 c-252 -141 -451 -344 -575 -586 -87 -169 -131 -313 -154
-495 -14 -116 -7 -326 16 -435 92 -450 379 -817 789 -1011 386 -183 852 -177
1234 15 83 42 123 75 55 45 -64 -27 -183 -62 -278 -80 -121 -24 -357 -24 -482
-1 -279 51 -528 178 -730 370 -118 113 -205 229 -277 367 -107 206 -158 412
-159 645 -2 296 74 550 240 799 78 117 233 278 338 351 83 58 92 65 80 65 -6
0 -49 -22 -97 -49z"/>
<path d="M2550 3479 c120 -75 183 -122 245 -184 135 -136 232 -306 282 -496
24 -92 27 -122 27 -259 0 -135 -3 -168 -26 -257 -96 -372 -375 -661 -741 -767
-190 -55 -393 -55 -581 -1 -44 13 -83 22 -85 19 -8 -8 137 -67 229 -92 86 -24
111 -27 270 -27 198 1 268 14 429 84 269 115 492 356 584 631 97 287 71 613
-68 866 -107 194 -275 355 -470 452 -96 48 -149 65 -95 31z"/>
<path d="M1395 3095 c-95 -17 -182 -63 -261 -138 l-66 -63 302 -296 c166 -164
299 -301 296 -307 -12 -19 -83 -35 -161 -36 -71 0 -88 4 -147 33 -39 19 -81
49 -101 72 -19 22 -42 40 -53 39 -27 0 -167 -54 -171 -65 -5 -16 102 -138 155
-178 90 -66 161 -89 292 -94 99 -3 124 -1 180 18 137 46 225 119 287 237 56
107 73 171 73 272 0 93 -28 191 -69 249 -11 17 -21 37 -21 45 0 24 -126 135
-193 168 -59 30 -180 59 -242 58 -16 -1 -62 -7 -100 -14z m237 -212 c62 -28
134 -96 166 -158 24 -45 27 -60 27 -157 0 -59 -5 -112 -10 -117 -7 -7 -82 61
-233 211 -122 122 -219 225 -214 229 26 26 200 20 264 -8z"/>
<path d="M281 859 c-133 -26 -241 -161 -241 -302 0 -111 69 -219 175 -275 43
-23 62 -27 135 -27 73 0 92 4 135 27 28 14 65 42 83 60 l33 35 -27 12 c-25 11
-30 9 -58 -18 -67 -65 -179 -83 -267 -44 -26 12 -50 26 -54 33 -5 8 59 79 185
205 120 120 191 198 188 207 -10 26 -88 71 -145 84 -65 15 -79 16 -142 3z
m167 -69 c24 -11 42 -24 40 -30 -3 -10 -339 -350 -345 -350 -2 0 -13 19 -23
43 -27 59 -26 153 1 212 25 53 94 117 141 132 55 18 139 15 186 -7z"/>
<path d="M943 860 c-64 -13 -116 -44 -166 -100 -60 -66 -81 -130 -75 -224 17
-253 305 -374 504 -211 50 41 54 52 22 64 -18 7 -30 2 -56 -20 -48 -43 -99
-61 -167 -62 -148 -1 -271 136 -251 281 27 199 255 289 414 164 27 -21 45 -29
60 -25 30 7 28 13 -15 55 -67 65 -177 97 -270 78z"/>
<path d="M1603 860 c-63 -13 -114 -43 -164 -97 -61 -65 -83 -131 -77 -227 17
-260 325 -380 512 -200 119 114 129 302 21 422 -75 84 -188 123 -292 102z
m141 -61 c45 -13 121 -79 145 -129 84 -165 -39 -364 -224 -363 -70 0 -117 18
-169 63 -132 117 -103 335 56 414 57 28 124 34 192 15z"/>
<path d="M3100 857 c-61 -14 -112 -42 -150 -82 l-25 -27 -5 34 c-4 25 -10 33
-25 33 -20 0 -20 -8 -23 -377 l-2 -378 25 0 25 0 0 157 0 157 38 -36 c66 -63
115 -83 212 -83 73 0 92 4 136 27 105 55 167 155 168 275 0 62 -4 80 -34 139
-67 130 -198 192 -340 161z m170 -68 c123 -56 179 -189 134 -322 -34 -99 -163
-177 -269 -162 -67 11 -144 61 -180 119 -41 67 -48 173 -15 241 25 52 95 117
142 132 56 18 139 15 188 -8z"/>
<path d="M2200 833 c-19 -9 -48 -17 -65 -17 l-30 -1 -3 -272 -2 -273 25 0 25
0 0 209 c0 124 4 221 11 238 26 70 89 98 152 68 61 -29 67 -54 67 -299 l0
-216 25 0 25 0 0 223 c0 202 2 225 20 254 38 64 132 66 180 5 19 -23 20 -41
20 -253 l0 -229 25 0 26 0 -3 246 -3 245 -41 39 c-67 62 -149 66 -214 11 l-34
-28 -38 30 c-47 37 -116 46 -168 20z"/>
</g>
</svg>
